<mxfile host="app.diagrams.net" modified="2023-12-31T08:48:30.691Z" agent="Mozilla/5.0 (Windows NT 10.0; Win64; x64) AppleWebKit/537.36 (KHTML, like Gecko) Chrome/120.0.0.0 Safari/537.36" etag="j60G57oD_PhX05hc4O4r" version="22.1.16" type="github">
  <diagram name="第 1 页" id="-5OzOIlpHrPJGMjkJwk9">
    <mxGraphModel dx="1034" dy="505" grid="1" gridSize="10" guides="1" tooltips="1" connect="1" arrows="1" fold="1" page="0" pageScale="1" pageWidth="827" pageHeight="1169" math="0" shadow="0">
      <root>
        <mxCell id="0" />
        <mxCell id="1" parent="0" />
        <mxCell id="AUneG37UKdQPa516Fs31-23" value="X" style="ellipse;whiteSpace=wrap;html=1;aspect=fixed;direction=east;" parent="1" vertex="1">
          <mxGeometry x="160" y="240" width="40" height="40" as="geometry" />
        </mxCell>
        <mxCell id="AUneG37UKdQPa516Fs31-27" value="" style="endArrow=none;html=1;rounded=0;entryX=1;entryY=1;entryDx=0;entryDy=0;exitX=0;exitY=0;exitDx=0;exitDy=0;" parent="1" source="so3ITCY_MhcmqPHEhHom-53" target="AUneG37UKdQPa516Fs31-23" edge="1">
          <mxGeometry width="50" height="50" relative="1" as="geometry">
            <mxPoint x="97" y="402.5" as="sourcePoint" />
            <mxPoint x="127" y="352.5" as="targetPoint" />
          </mxGeometry>
        </mxCell>
        <mxCell id="so3ITCY_MhcmqPHEhHom-2" value="" style="endArrow=none;html=1;rounded=0;exitX=0.5;exitY=0;exitDx=0;exitDy=0;" parent="1" source="AUneG37UKdQPa516Fs31-23" edge="1">
          <mxGeometry width="50" height="50" relative="1" as="geometry">
            <mxPoint x="204" y="277" as="sourcePoint" />
            <mxPoint x="180" y="160" as="targetPoint" />
          </mxGeometry>
        </mxCell>
        <mxCell id="so3ITCY_MhcmqPHEhHom-6" value="T4" style="rounded=0;whiteSpace=wrap;html=1;direction=east;" parent="1" vertex="1">
          <mxGeometry x="290" y="407.5" width="40" height="140" as="geometry" />
        </mxCell>
        <mxCell id="so3ITCY_MhcmqPHEhHom-7" value="T1" style="rounded=0;whiteSpace=wrap;html=1;direction=east;" parent="1" vertex="1">
          <mxGeometry x="40" y="320" width="40" height="155" as="geometry" />
        </mxCell>
        <mxCell id="so3ITCY_MhcmqPHEhHom-8" value="T2" style="rounded=0;whiteSpace=wrap;html=1;direction=east;" parent="1" vertex="1">
          <mxGeometry x="120" y="470" width="40" height="140" as="geometry" />
        </mxCell>
        <mxCell id="so3ITCY_MhcmqPHEhHom-9" value="" style="endArrow=none;html=1;rounded=0;entryX=0;entryY=1;entryDx=0;entryDy=0;exitX=0.5;exitY=0;exitDx=0;exitDy=0;" parent="1" source="so3ITCY_MhcmqPHEhHom-8" target="so3ITCY_MhcmqPHEhHom-55" edge="1">
          <mxGeometry width="50" height="50" relative="1" as="geometry">
            <mxPoint x="380" y="600" as="sourcePoint" />
            <mxPoint x="430" y="550" as="targetPoint" />
          </mxGeometry>
        </mxCell>
        <mxCell id="so3ITCY_MhcmqPHEhHom-10" value="S" style="rounded=0;whiteSpace=wrap;html=1;direction=east;" parent="1" vertex="1">
          <mxGeometry x="120" y="610" width="40" height="30" as="geometry" />
        </mxCell>
        <mxCell id="so3ITCY_MhcmqPHEhHom-11" value="高h-1" style="text;html=1;strokeColor=none;fillColor=none;align=center;verticalAlign=middle;whiteSpace=wrap;rounded=0;" parent="1" vertex="1">
          <mxGeometry x="110" y="640" width="60" height="30" as="geometry" />
        </mxCell>
        <mxCell id="so3ITCY_MhcmqPHEhHom-12" value="高h-1" style="text;html=1;strokeColor=none;fillColor=none;align=center;verticalAlign=middle;whiteSpace=wrap;rounded=0;direction=east;" parent="1" vertex="1">
          <mxGeometry x="280" y="550" width="60" height="30" as="geometry" />
        </mxCell>
        <mxCell id="so3ITCY_MhcmqPHEhHom-13" value="高h-2" style="text;html=1;strokeColor=none;fillColor=none;align=center;verticalAlign=middle;whiteSpace=wrap;rounded=0;" parent="1" vertex="1">
          <mxGeometry x="200" y="602.5" width="60" height="30" as="geometry" />
        </mxCell>
        <mxCell id="so3ITCY_MhcmqPHEhHom-29" value="" style="endArrow=none;html=1;rounded=0;exitX=0.5;exitY=0;exitDx=0;exitDy=0;" parent="1" source="so3ITCY_MhcmqPHEhHom-130" edge="1">
          <mxGeometry width="50" height="50" relative="1" as="geometry">
            <mxPoint x="590" y="240" as="sourcePoint" />
            <mxPoint x="590" y="140" as="targetPoint" />
          </mxGeometry>
        </mxCell>
        <mxCell id="so3ITCY_MhcmqPHEhHom-34" value="" style="endArrow=classic;html=1;rounded=0;" parent="1" edge="1">
          <mxGeometry width="50" height="50" relative="1" as="geometry">
            <mxPoint x="330" y="339.5" as="sourcePoint" />
            <mxPoint x="400" y="339.5" as="targetPoint" />
          </mxGeometry>
        </mxCell>
        <mxCell id="so3ITCY_MhcmqPHEhHom-35" value="XR右旋" style="edgeLabel;html=1;align=center;verticalAlign=middle;resizable=0;points=[];" parent="so3ITCY_MhcmqPHEhHom-34" vertex="1" connectable="0">
          <mxGeometry x="0.0571" y="1" relative="1" as="geometry">
            <mxPoint y="1" as="offset" />
          </mxGeometry>
        </mxCell>
        <mxCell id="so3ITCY_MhcmqPHEhHom-37" value="" style="endArrow=none;html=1;rounded=0;exitX=1;exitY=1;exitDx=0;exitDy=0;entryX=0.5;entryY=0;entryDx=0;entryDy=0;" parent="1" source="so3ITCY_MhcmqPHEhHom-53" target="so3ITCY_MhcmqPHEhHom-6" edge="1">
          <mxGeometry width="50" height="50" relative="1" as="geometry">
            <mxPoint x="410" y="430" as="sourcePoint" />
            <mxPoint x="245.85786437626894" y="325.85786437626894" as="targetPoint" />
          </mxGeometry>
        </mxCell>
        <mxCell id="so3ITCY_MhcmqPHEhHom-54" value="" style="endArrow=none;html=1;rounded=0;entryX=0;entryY=1;entryDx=0;entryDy=0;exitX=0.5;exitY=0;exitDx=0;exitDy=0;" parent="1" source="so3ITCY_MhcmqPHEhHom-7" target="AUneG37UKdQPa516Fs31-23" edge="1">
          <mxGeometry width="50" height="50" relative="1" as="geometry">
            <mxPoint x="60" y="400" as="sourcePoint" />
            <mxPoint x="166" y="274" as="targetPoint" />
          </mxGeometry>
        </mxCell>
        <mxCell id="so3ITCY_MhcmqPHEhHom-53" value="XR" style="ellipse;whiteSpace=wrap;html=1;aspect=fixed;direction=east;" parent="1" vertex="1">
          <mxGeometry x="230" y="320" width="40" height="40" as="geometry" />
        </mxCell>
        <mxCell id="so3ITCY_MhcmqPHEhHom-55" value="XRL" style="ellipse;whiteSpace=wrap;html=1;aspect=fixed;direction=east;" parent="1" vertex="1">
          <mxGeometry x="160" y="390" width="40" height="40" as="geometry" />
        </mxCell>
        <mxCell id="so3ITCY_MhcmqPHEhHom-57" value="" style="endArrow=none;html=1;rounded=0;exitX=0;exitY=1;exitDx=0;exitDy=0;entryX=1;entryY=0;entryDx=0;entryDy=0;" parent="1" source="so3ITCY_MhcmqPHEhHom-53" target="so3ITCY_MhcmqPHEhHom-55" edge="1">
          <mxGeometry width="50" height="50" relative="1" as="geometry">
            <mxPoint x="410" y="430" as="sourcePoint" />
            <mxPoint x="460" y="380" as="targetPoint" />
          </mxGeometry>
        </mxCell>
        <mxCell id="so3ITCY_MhcmqPHEhHom-58" value="T3" style="rounded=0;whiteSpace=wrap;html=1;direction=east;" parent="1" vertex="1">
          <mxGeometry x="210" y="462.5" width="40" height="140" as="geometry" />
        </mxCell>
        <mxCell id="so3ITCY_MhcmqPHEhHom-59" value="" style="endArrow=none;html=1;rounded=0;entryX=1;entryY=1;entryDx=0;entryDy=0;exitX=0.5;exitY=0;exitDx=0;exitDy=0;" parent="1" source="so3ITCY_MhcmqPHEhHom-58" target="so3ITCY_MhcmqPHEhHom-55" edge="1">
          <mxGeometry width="50" height="50" relative="1" as="geometry">
            <mxPoint x="160" y="480" as="sourcePoint" />
            <mxPoint x="166" y="444" as="targetPoint" />
          </mxGeometry>
        </mxCell>
        <mxCell id="so3ITCY_MhcmqPHEhHom-62" value="高h-1" style="text;html=1;strokeColor=none;fillColor=none;align=center;verticalAlign=middle;whiteSpace=wrap;rounded=0;" parent="1" vertex="1">
          <mxGeometry x="30" y="487.5" width="60" height="30" as="geometry" />
        </mxCell>
        <mxCell id="so3ITCY_MhcmqPHEhHom-119" value="" style="endArrow=none;html=1;rounded=0;exitX=0.5;exitY=0;exitDx=0;exitDy=0;" parent="1" source="so3ITCY_MhcmqPHEhHom-179" edge="1">
          <mxGeometry width="50" height="50" relative="1" as="geometry">
            <mxPoint x="1010" y="240" as="sourcePoint" />
            <mxPoint x="1010" y="115" as="targetPoint" />
          </mxGeometry>
        </mxCell>
        <mxCell id="so3ITCY_MhcmqPHEhHom-128" value="" style="endArrow=classic;html=1;rounded=0;" parent="1" edge="1">
          <mxGeometry width="50" height="50" relative="1" as="geometry">
            <mxPoint x="760" y="330" as="sourcePoint" />
            <mxPoint x="840" y="330" as="targetPoint" />
          </mxGeometry>
        </mxCell>
        <mxCell id="so3ITCY_MhcmqPHEhHom-129" value="X左旋" style="edgeLabel;html=1;align=center;verticalAlign=middle;resizable=0;points=[];" parent="so3ITCY_MhcmqPHEhHom-128" vertex="1" connectable="0">
          <mxGeometry x="-0.0618" y="1" relative="1" as="geometry">
            <mxPoint as="offset" />
          </mxGeometry>
        </mxCell>
        <mxCell id="so3ITCY_MhcmqPHEhHom-130" value="X" style="ellipse;whiteSpace=wrap;html=1;aspect=fixed;direction=east;" parent="1" vertex="1">
          <mxGeometry x="570" y="240" width="40" height="40" as="geometry" />
        </mxCell>
        <mxCell id="so3ITCY_MhcmqPHEhHom-131" value="" style="endArrow=none;html=1;rounded=0;entryX=1;entryY=1;entryDx=0;entryDy=0;exitX=0;exitY=0;exitDx=0;exitDy=0;" parent="1" source="so3ITCY_MhcmqPHEhHom-143" target="so3ITCY_MhcmqPHEhHom-130" edge="1">
          <mxGeometry width="50" height="50" relative="1" as="geometry">
            <mxPoint x="507" y="402.5" as="sourcePoint" />
            <mxPoint x="537" y="352.5" as="targetPoint" />
          </mxGeometry>
        </mxCell>
        <mxCell id="so3ITCY_MhcmqPHEhHom-132" value="T4" style="rounded=0;whiteSpace=wrap;html=1;direction=east;" parent="1" vertex="1">
          <mxGeometry x="750" y="450" width="40" height="140" as="geometry" />
        </mxCell>
        <mxCell id="so3ITCY_MhcmqPHEhHom-133" value="T1" style="rounded=0;whiteSpace=wrap;html=1;direction=east;" parent="1" vertex="1">
          <mxGeometry x="470" y="320" width="40" height="155" as="geometry" />
        </mxCell>
        <mxCell id="so3ITCY_MhcmqPHEhHom-134" value="T2" style="rounded=0;whiteSpace=wrap;html=1;direction=east;" parent="1" vertex="1">
          <mxGeometry x="560" y="395" width="40" height="140" as="geometry" />
        </mxCell>
        <mxCell id="so3ITCY_MhcmqPHEhHom-135" value="" style="endArrow=none;html=1;rounded=0;entryX=0;entryY=1;entryDx=0;entryDy=0;exitX=0.5;exitY=0;exitDx=0;exitDy=0;" parent="1" source="so3ITCY_MhcmqPHEhHom-134" target="so3ITCY_MhcmqPHEhHom-143" edge="1">
          <mxGeometry width="50" height="50" relative="1" as="geometry">
            <mxPoint x="790" y="600" as="sourcePoint" />
            <mxPoint x="840" y="550" as="targetPoint" />
          </mxGeometry>
        </mxCell>
        <mxCell id="so3ITCY_MhcmqPHEhHom-136" value="S" style="rounded=0;whiteSpace=wrap;html=1;direction=east;" parent="1" vertex="1">
          <mxGeometry x="560" y="535" width="40" height="30" as="geometry" />
        </mxCell>
        <mxCell id="so3ITCY_MhcmqPHEhHom-137" value="高h-1" style="text;html=1;strokeColor=none;fillColor=none;align=center;verticalAlign=middle;whiteSpace=wrap;rounded=0;" parent="1" vertex="1">
          <mxGeometry x="550" y="565" width="60" height="30" as="geometry" />
        </mxCell>
        <mxCell id="so3ITCY_MhcmqPHEhHom-138" value="高h-1" style="text;html=1;strokeColor=none;fillColor=none;align=center;verticalAlign=middle;whiteSpace=wrap;rounded=0;direction=east;" parent="1" vertex="1">
          <mxGeometry x="740" y="590" width="60" height="30" as="geometry" />
        </mxCell>
        <mxCell id="so3ITCY_MhcmqPHEhHom-139" value="高h-2" style="text;html=1;strokeColor=none;fillColor=none;align=center;verticalAlign=middle;whiteSpace=wrap;rounded=0;" parent="1" vertex="1">
          <mxGeometry x="630" y="590" width="60" height="30" as="geometry" />
        </mxCell>
        <mxCell id="so3ITCY_MhcmqPHEhHom-140" value="" style="endArrow=none;html=1;rounded=0;exitX=1;exitY=1;exitDx=0;exitDy=0;entryX=0.5;entryY=0;entryDx=0;entryDy=0;" parent="1" source="so3ITCY_MhcmqPHEhHom-142" target="so3ITCY_MhcmqPHEhHom-132" edge="1">
          <mxGeometry width="50" height="50" relative="1" as="geometry">
            <mxPoint x="820" y="430" as="sourcePoint" />
            <mxPoint x="655.8578643762689" y="325.85786437626894" as="targetPoint" />
          </mxGeometry>
        </mxCell>
        <mxCell id="so3ITCY_MhcmqPHEhHom-141" value="" style="endArrow=none;html=1;rounded=0;entryX=0;entryY=1;entryDx=0;entryDy=0;exitX=0.5;exitY=0;exitDx=0;exitDy=0;" parent="1" source="so3ITCY_MhcmqPHEhHom-133" target="so3ITCY_MhcmqPHEhHom-130" edge="1">
          <mxGeometry width="50" height="50" relative="1" as="geometry">
            <mxPoint x="470" y="400" as="sourcePoint" />
            <mxPoint x="576" y="274" as="targetPoint" />
          </mxGeometry>
        </mxCell>
        <mxCell id="so3ITCY_MhcmqPHEhHom-142" value="XR" style="ellipse;whiteSpace=wrap;html=1;aspect=fixed;direction=east;" parent="1" vertex="1">
          <mxGeometry x="700" y="380" width="40" height="40" as="geometry" />
        </mxCell>
        <mxCell id="so3ITCY_MhcmqPHEhHom-143" value="XRL" style="ellipse;whiteSpace=wrap;html=1;aspect=fixed;direction=east;" parent="1" vertex="1">
          <mxGeometry x="640" y="320" width="40" height="40" as="geometry" />
        </mxCell>
        <mxCell id="so3ITCY_MhcmqPHEhHom-144" value="" style="endArrow=none;html=1;rounded=0;exitX=0;exitY=0;exitDx=0;exitDy=0;entryX=1;entryY=1;entryDx=0;entryDy=0;" parent="1" source="so3ITCY_MhcmqPHEhHom-142" target="so3ITCY_MhcmqPHEhHom-143" edge="1">
          <mxGeometry width="50" height="50" relative="1" as="geometry">
            <mxPoint x="820" y="430" as="sourcePoint" />
            <mxPoint x="870" y="380" as="targetPoint" />
          </mxGeometry>
        </mxCell>
        <mxCell id="so3ITCY_MhcmqPHEhHom-145" value="T3" style="rounded=0;whiteSpace=wrap;html=1;direction=east;" parent="1" vertex="1">
          <mxGeometry x="640" y="450" width="40" height="140" as="geometry" />
        </mxCell>
        <mxCell id="so3ITCY_MhcmqPHEhHom-146" value="" style="endArrow=none;html=1;rounded=0;entryX=0;entryY=1;entryDx=0;entryDy=0;exitX=0.5;exitY=0;exitDx=0;exitDy=0;" parent="1" source="so3ITCY_MhcmqPHEhHom-145" target="so3ITCY_MhcmqPHEhHom-142" edge="1">
          <mxGeometry width="50" height="50" relative="1" as="geometry">
            <mxPoint x="570" y="480" as="sourcePoint" />
            <mxPoint x="576" y="444" as="targetPoint" />
          </mxGeometry>
        </mxCell>
        <mxCell id="so3ITCY_MhcmqPHEhHom-147" value="高h-1" style="text;html=1;strokeColor=none;fillColor=none;align=center;verticalAlign=middle;whiteSpace=wrap;rounded=0;" parent="1" vertex="1">
          <mxGeometry x="460" y="472.5" width="60" height="30" as="geometry" />
        </mxCell>
        <mxCell id="so3ITCY_MhcmqPHEhHom-167" value="X" style="ellipse;whiteSpace=wrap;html=1;aspect=fixed;direction=east;" parent="1" vertex="1">
          <mxGeometry x="920" y="320" width="40" height="40" as="geometry" />
        </mxCell>
        <mxCell id="so3ITCY_MhcmqPHEhHom-168" value="" style="endArrow=none;html=1;rounded=0;entryX=1;entryY=0;entryDx=0;entryDy=0;exitX=0;exitY=1;exitDx=0;exitDy=0;" parent="1" source="so3ITCY_MhcmqPHEhHom-179" target="so3ITCY_MhcmqPHEhHom-167" edge="1">
          <mxGeometry width="50" height="50" relative="1" as="geometry">
            <mxPoint x="927" y="402.5" as="sourcePoint" />
            <mxPoint x="957" y="352.5" as="targetPoint" />
          </mxGeometry>
        </mxCell>
        <mxCell id="so3ITCY_MhcmqPHEhHom-169" value="T4" style="rounded=0;whiteSpace=wrap;html=1;direction=east;" parent="1" vertex="1">
          <mxGeometry x="1120" y="390" width="40" height="140" as="geometry" />
        </mxCell>
        <mxCell id="so3ITCY_MhcmqPHEhHom-170" value="T1" style="rounded=0;whiteSpace=wrap;html=1;direction=east;" parent="1" vertex="1">
          <mxGeometry x="870" y="387.5" width="40" height="155" as="geometry" />
        </mxCell>
        <mxCell id="so3ITCY_MhcmqPHEhHom-171" value="T2" style="rounded=0;whiteSpace=wrap;html=1;direction=east;" parent="1" vertex="1">
          <mxGeometry x="960" y="390" width="40" height="140" as="geometry" />
        </mxCell>
        <mxCell id="so3ITCY_MhcmqPHEhHom-172" value="" style="endArrow=none;html=1;rounded=0;exitX=0.5;exitY=0;exitDx=0;exitDy=0;entryX=1;entryY=1;entryDx=0;entryDy=0;" parent="1" source="so3ITCY_MhcmqPHEhHom-171" target="so3ITCY_MhcmqPHEhHom-167" edge="1">
          <mxGeometry width="50" height="50" relative="1" as="geometry">
            <mxPoint x="1190" y="610" as="sourcePoint" />
            <mxPoint x="1000" y="290" as="targetPoint" />
          </mxGeometry>
        </mxCell>
        <mxCell id="so3ITCY_MhcmqPHEhHom-173" value="S" style="rounded=0;whiteSpace=wrap;html=1;direction=east;" parent="1" vertex="1">
          <mxGeometry x="960" y="530" width="40" height="30" as="geometry" />
        </mxCell>
        <mxCell id="so3ITCY_MhcmqPHEhHom-174" value="高h-1" style="text;html=1;strokeColor=none;fillColor=none;align=center;verticalAlign=middle;whiteSpace=wrap;rounded=0;" parent="1" vertex="1">
          <mxGeometry x="950" y="560" width="60" height="30" as="geometry" />
        </mxCell>
        <mxCell id="so3ITCY_MhcmqPHEhHom-175" value="高h-2" style="text;html=1;strokeColor=none;fillColor=none;align=center;verticalAlign=middle;whiteSpace=wrap;rounded=0;" parent="1" vertex="1">
          <mxGeometry x="1040" y="530" width="60" height="30" as="geometry" />
        </mxCell>
        <mxCell id="so3ITCY_MhcmqPHEhHom-176" value="" style="endArrow=none;html=1;rounded=0;exitX=1;exitY=1;exitDx=0;exitDy=0;entryX=0.5;entryY=0;entryDx=0;entryDy=0;" parent="1" source="so3ITCY_MhcmqPHEhHom-178" target="so3ITCY_MhcmqPHEhHom-169" edge="1">
          <mxGeometry width="50" height="50" relative="1" as="geometry">
            <mxPoint x="1230" y="370" as="sourcePoint" />
            <mxPoint x="1065.857864376269" y="265.85786437626894" as="targetPoint" />
          </mxGeometry>
        </mxCell>
        <mxCell id="so3ITCY_MhcmqPHEhHom-177" value="" style="endArrow=none;html=1;rounded=0;entryX=0;entryY=1;entryDx=0;entryDy=0;exitX=0.5;exitY=0;exitDx=0;exitDy=0;" parent="1" source="so3ITCY_MhcmqPHEhHom-170" target="so3ITCY_MhcmqPHEhHom-167" edge="1">
          <mxGeometry width="50" height="50" relative="1" as="geometry">
            <mxPoint x="870" y="410" as="sourcePoint" />
            <mxPoint x="976" y="284" as="targetPoint" />
          </mxGeometry>
        </mxCell>
        <mxCell id="so3ITCY_MhcmqPHEhHom-178" value="XR" style="ellipse;whiteSpace=wrap;html=1;aspect=fixed;direction=east;" parent="1" vertex="1">
          <mxGeometry x="1070" y="320" width="40" height="40" as="geometry" />
        </mxCell>
        <mxCell id="so3ITCY_MhcmqPHEhHom-179" value="XRL" style="ellipse;whiteSpace=wrap;html=1;aspect=fixed;direction=east;" parent="1" vertex="1">
          <mxGeometry x="990" y="240" width="40" height="40" as="geometry" />
        </mxCell>
        <mxCell id="so3ITCY_MhcmqPHEhHom-180" value="" style="endArrow=none;html=1;rounded=0;exitX=0;exitY=0;exitDx=0;exitDy=0;entryX=1;entryY=1;entryDx=0;entryDy=0;" parent="1" source="so3ITCY_MhcmqPHEhHom-178" target="so3ITCY_MhcmqPHEhHom-179" edge="1">
          <mxGeometry width="50" height="50" relative="1" as="geometry">
            <mxPoint x="1240" y="430" as="sourcePoint" />
            <mxPoint x="1290" y="380" as="targetPoint" />
          </mxGeometry>
        </mxCell>
        <mxCell id="so3ITCY_MhcmqPHEhHom-181" value="T3" style="rounded=0;whiteSpace=wrap;html=1;direction=east;" parent="1" vertex="1">
          <mxGeometry x="1050" y="390" width="40" height="140" as="geometry" />
        </mxCell>
        <mxCell id="so3ITCY_MhcmqPHEhHom-182" value="" style="endArrow=none;html=1;rounded=0;entryX=0;entryY=1;entryDx=0;entryDy=0;exitX=0.5;exitY=0;exitDx=0;exitDy=0;" parent="1" source="so3ITCY_MhcmqPHEhHom-181" target="so3ITCY_MhcmqPHEhHom-178" edge="1">
          <mxGeometry width="50" height="50" relative="1" as="geometry">
            <mxPoint x="980" y="420" as="sourcePoint" />
            <mxPoint x="986" y="384" as="targetPoint" />
          </mxGeometry>
        </mxCell>
        <mxCell id="so3ITCY_MhcmqPHEhHom-183" value="高h-1" style="text;html=1;strokeColor=none;fillColor=none;align=center;verticalAlign=middle;whiteSpace=wrap;rounded=0;" parent="1" vertex="1">
          <mxGeometry x="860" y="545" width="60" height="30" as="geometry" />
        </mxCell>
        <mxCell id="so3ITCY_MhcmqPHEhHom-185" value="高h-1" style="text;html=1;strokeColor=none;fillColor=none;align=center;verticalAlign=middle;whiteSpace=wrap;rounded=0;" parent="1" vertex="1">
          <mxGeometry x="1110" y="530" width="60" height="30" as="geometry" />
        </mxCell>
      </root>
    </mxGraphModel>
  </diagram>
</mxfile>
